<?xml version="1.0" encoding="utf-8"?>
<!-- Generator: Adobe Illustrator 17.0.0, SVG Export Plug-In . SVG Version: 6.00 Build 0)  -->
<!DOCTYPE svg PUBLIC "-//W3C//DTD SVG 1.1//EN" "http://www.w3.org/Graphics/SVG/1.1/DTD/svg11.dtd">
<svg version="1.1" id="Capa_1" xmlns="http://www.w3.org/2000/svg" xmlns:xlink="http://www.w3.org/1999/xlink" x="0px" y="0px"
	 width="171px" height="126.333px" viewBox="0 0 171 126.333" enable-background="new 0 0 171 126.333" xml:space="preserve">
<g>
	<path d="M33.567,43.995c4.528,3.419,7.887,5.858,11.136,8.434c3.737,2.963,4.543,7.188,2.146,10.483
		c-2.441,3.356-6.744,3.973-10.597,1.143c-9.665-7.1-19.288-14.261-28.783-21.585c-4.35-3.355-4.351-8.461,0.052-11.873
		c9.61-7.447,19.353-14.725,29.17-21.898c3.559-2.601,7.819-1.765,10.175,1.475c2.293,3.152,1.608,7.355-1.762,10.194
		c-1.654,1.393-3.441,2.629-5.164,3.94c-1.693,1.287-3.382,2.58-4.98,5.017c2.176,0,4.352,0,6.528,0
		c25.994,0.001,51.989-0.137,77.982,0.043c25.503,0.177,44.906,19.133,45.151,43.739c0.238,23.876-19.052,44.014-42.925,44.458
		c-14.659,0.273-29.326,0.09-43.99,0.047c-5.572-0.016-8.832-2.841-8.751-7.343c0.08-4.472,3.294-7.119,8.993-7.143
		c13.83-0.058,27.661,0.03,41.491-0.045c17.496-0.095,30.582-12.729,30.63-29.452c0.049-16.961-13.161-29.845-30.794-29.882
		c-26.661-0.055-53.322-0.02-79.983-0.01C37.857,43.739,36.421,43.863,33.567,43.995z"/>
</g>
</svg>
