<?xml version="1.0" encoding="utf-8"?>
<!-- Generator: Adobe Illustrator 17.0.0, SVG Export Plug-In . SVG Version: 6.00 Build 0)  -->
<!DOCTYPE svg PUBLIC "-//W3C//DTD SVG 1.1//EN" "http://www.w3.org/Graphics/SVG/1.1/DTD/svg11.dtd">
<svg version="1.1" id="Capa_1" xmlns="http://www.w3.org/2000/svg" xmlns:xlink="http://www.w3.org/1999/xlink" x="0px" y="0px"
	 width="109.25px" height="141.73px" viewBox="0 0 109.25 141.73" enable-background="new 0 0 109.25 141.73" xml:space="preserve">
<g>
	<path d="M5.635,23.397c32.613,0,64.765,0,97.303,0c0,3.488,0.013,6.907-0.022,10.326c-0.003,0.318-0.237,0.724-0.491,0.936
		c-3.266,2.726-3.24,6.387-3.23,10.216c0.074,27.426-0.118,54.853,0.142,82.277c0.072,7.602-4.929,12.597-12.25,12.613
		c-21.868,0.051-43.735,0.058-65.603-0.012c-7.6-0.024-12.283-5.292-12.219-12.65C9.512,98.677,9.403,70.247,9.281,41.82
		c-0.008-1.922-0.811-4.141-1.969-5.676c-1.258-1.667-1.799-3.199-1.705-5.198C5.723,28.513,5.635,26.07,5.635,23.397z
		 M37.685,115.291c0-22.965,0-45.767,0-68.696c-2.852,0-5.532,0-8.351,0c0,22.961,0,45.765,0,68.696
		C32.184,115.291,34.865,115.291,37.685,115.291z M73.604,46.586c0,23.064,0,45.791,0,68.601c2.888,0,5.622,0,8.279,0
		c0-23.04,0-45.821,0-68.601C79.013,46.586,76.402,46.586,73.604,46.586z M58.571,115.263c0-22.911,0-45.727,0-68.622
		c-2.843,0-5.51,0-8.327,0c0,22.946,0,45.69,0,68.622C53.069,115.263,55.745,115.263,58.571,115.263z"/>
	<path d="M1.5,20.79c0-2.177,0-4.137,0-6.46c1.116,0,2.092,0,3.069,0c7.201,0,14.403,0.043,21.603-0.06
		c0.865-0.012,2.24-0.621,2.497-1.292c2.62-6.819,7.686-10.397,14.765-10.666c7.637-0.29,15.315-0.273,22.942,0.174
		c6.443,0.378,11.047,3.967,13.281,10.137c0.581,1.604,1.541,1.709,2.89,1.704c6.928-0.029,13.855-0.013,20.783-0.012
		c1.174,0,2.348,0,3.726,0c0,2.247,0,4.269,0,6.474C71.859,20.79,36.741,20.79,1.5,20.79z M37.632,14.12c11.229,0,22.062,0,33.26,0
		c-1.407-2.598-3.42-3.754-5.855-3.796c-7.097-0.121-14.199-0.105-21.297-0.018C41.245,10.337,39.216,11.506,37.632,14.12z"/>
</g>
</svg>
