<?xml version="1.0" encoding="utf-8"?>
<!-- Generator: Adobe Illustrator 17.0.0, SVG Export Plug-In . SVG Version: 6.00 Build 0)  -->
<!DOCTYPE svg PUBLIC "-//W3C//DTD SVG 1.1//EN" "http://www.w3.org/Graphics/SVG/1.1/DTD/svg11.dtd">
<svg version="1.1" id="Capa_1" xmlns="http://www.w3.org/2000/svg" xmlns:xlink="http://www.w3.org/1999/xlink" x="0px" y="0px"
	 width="141.73px" height="141.73px" viewBox="0 0 141.73 141.73" enable-background="new 0 0 141.73 141.73" xml:space="preserve">
<g>
	<path d="M70.719,127.321c10.305,0,20.61,0.005,30.915-0.002c3.635-0.003,7.276,0.099,10.902-0.08
		c7.334-0.362,13.71-6.705,14.157-14.025c0.169-2.767,0.116-5.549,0.118-8.325c0.011-11.536,0.019-23.071-0.014-34.607
		c-0.004-1.359,0.385-2.408,1.377-3.35c1.971-1.872,3.878-3.812,5.783-5.752c1.89-1.925,4.916-0.433,5.219,1.272
		c0.05,0.28,0.095,0.565,0.095,0.848c0.002,16.373,0.112,32.747-0.043,49.119c-0.099,10.429-5.24,18.137-13.901,23.609
		c-4.193,2.649-8.878,3.768-13.808,3.773c-21.611,0.021-43.222,0.009-64.833,0.008c-5.582,0-11.164-0.031-16.745,0.003
		C15.895,139.897,6.2,129.588,3.345,120.504c-0.873-2.779-1.327-5.622-1.327-8.528C2.011,84.583,1.968,57.19,2.049,29.797
		c0.023-7.608,3.088-14.031,8.542-19.323C16.1,5.128,22.695,2.552,30.363,2.563C47.68,2.587,64.998,2.567,82.315,2.566
		c0.343,0,0.69-0.019,1.03,0.016c0.971,0.101,1.491,0.673,1.491,1.649c0,1.361-0.591,2.527-1.454,3.493
		c-1.466,1.642-3.078,3.153-4.56,4.78c-1.174,1.289-2.628,2.01-4.285,2.341c-0.834,0.167-1.704,0.215-2.558,0.216
		c-13.911,0.013-27.823-0.015-41.734,0.019c-6.873,0.017-11.622,3.421-14.553,9.501c-0.92,1.908-1.191,3.987-1.19,6.098
		c0.005,10.189,0.012,20.379,0.012,30.568c0,10.304-0.01,20.608-0.011,30.912c-0.001,6.64-0.029,13.281,0.02,19.921
		c0.062,8.322,6.918,15.187,15.238,15.22c11.477,0.045,22.955,0.012,34.433,0.013c2.175,0,4.351,0,6.526,0
		C70.719,127.317,70.719,127.319,70.719,127.321z"/>
	<path d="M34.721,107.165c-0.02-0.379-0.047-0.657-0.047-0.936c-0.004-8.129,0.003-16.258-0.023-24.387
		c-0.002-0.718,0.213-1.216,0.72-1.722c15.028-15.003,30.043-30.02,45.058-45.036c4.897-4.897,9.793-9.797,14.682-14.702
		c0.302-0.303,0.545-0.664,0.756-0.925c8.866,8.884,17.607,17.641,26.48,26.531c-1.359,1.317-2.873,2.748-4.346,4.22
		c-18.706,18.693-37.409,37.39-56.095,56.103c-0.611,0.612-1.207,0.883-2.085,0.88c-8.043-0.036-16.086-0.024-24.13-0.026
		C35.386,107.165,35.08,107.165,34.721,107.165z M54.006,74.03c-0.036,0.025-0.138,0.077-0.215,0.154
		c-3.319,3.314-6.642,6.624-9.94,9.959c-0.226,0.228-0.353,0.644-0.365,0.978c-0.045,1.228-0.072,2.462,0.002,3.688
		c0.028,0.456,0.246,0.997,0.559,1.324c1.682,1.755,3.419,3.457,5.142,5.173c1.013,1.009,1.873,2.403,3.096,2.904
		c1.253,0.514,2.867,0.194,4.319,0.144c0.453-0.016,1.006-0.229,1.325-0.543c3.079-3.029,6.118-6.098,9.166-9.157
		c0.275-0.276,0.54-0.563,0.747-0.78C63.194,83.224,58.615,78.642,54.006,74.03z M64.237,68.396
		c0.411-0.302,1.056-0.663,1.561-1.166c7.297-7.264,14.575-14.548,21.857-21.827c3.237-3.235,6.479-6.464,9.706-9.709
		c1.181-1.188,1.217-2.177,0.177-3.187c-0.986-0.958-1.858-0.885-3.043,0.256c-0.165,0.159-0.328,0.319-0.49,0.481
		c-9.326,9.32-18.652,18.639-27.977,27.961c-1.234,1.233-2.47,2.465-3.674,3.727c-0.523,0.548-0.776,1.223-0.396,1.965
		C62.371,67.7,62.998,68.247,64.237,68.396z"/>
	<path d="M128.189,39.529c-8.52-8.533-17.244-17.27-26.029-26.068c-0.011,0.019,0.034-0.121,0.126-0.213
		c2.835-2.828,5.625-5.703,8.526-8.461c2.882-2.741,7.537-3.007,10.767-0.697c0.83,0.594,1.558,1.343,2.285,2.068
		c4.316,4.3,8.638,8.593,12.917,12.93c2.741,2.778,3.309,6.922,1.498,10.297c-0.228,0.426-0.464,0.879-0.804,1.209
		C134.378,33.602,131.258,36.583,128.189,39.529z"/>
</g>
</svg>
