<?xml version="1.0" encoding="utf-8"?>
<!-- Generator: Adobe Illustrator 17.0.0, SVG Export Plug-In . SVG Version: 6.00 Build 0)  -->
<!DOCTYPE svg PUBLIC "-//W3C//DTD SVG 1.1//EN" "http://www.w3.org/Graphics/SVG/1.1/DTD/svg11.dtd">
<svg version="1.1" xmlns="http://www.w3.org/2000/svg" xmlns:xlink="http://www.w3.org/1999/xlink" x="0px" y="0px"
	 width="141.732px" height="98.817px" viewBox="0 0 141.732 98.817" enable-background="new 0 0 141.732 98.817"
	 xml:space="preserve">
<g id="Capa_2">
</g>
<g id="Capa_1">
	<g>
		<path d="M2.574,48.444c0-0.574,0-1.147,0-1.721c0.488-0.542,1.043-1.038,1.454-1.633c6.841-9.898,14.907-18.635,24.605-25.796
			C46.309,6.24,65.813,0.901,87.5,6.164c17.432,4.231,31.183,14.458,42.772,27.781c3.543,4.073,6.668,8.508,9.985,12.778
			c0,0.574,0,1.147,0,1.721c-0.491,0.67-1.039,1.306-1.463,2.015c-7.526,12.597-16.811,23.628-28.672,32.391
			c-22.777,16.829-49.047,17.67-72.673,2.213c-8.451-5.529-15.848-12.307-22.251-20.09C10.796,59.624,6.769,53.965,2.574,48.444z
			 M71.446,21.577c-15.658-0.003-28.592,12.788-28.66,28.342c-0.07,15.785,12.789,28.815,28.456,28.833
			c15.854,0.019,28.752-12.755,28.762-28.486C100.013,34.445,87.208,21.58,71.446,21.577z"/>
		<path d="M88.626,50.226c-0.008,9.693-7.526,17.158-17.271,17.149c-9.693-0.008-17.157-7.526-17.149-17.272
			c0.008-9.692,7.526-17.157,17.271-17.149C81.169,32.963,88.634,40.481,88.626,50.226z"/>
	</g>
</g>
</svg>
