<?xml version="1.0" encoding="utf-8"?>
<!-- Generator: Adobe Illustrator 17.0.0, SVG Export Plug-In . SVG Version: 6.00 Build 0)  -->
<!DOCTYPE svg PUBLIC "-//W3C//DTD SVG 1.1//EN" "http://www.w3.org/Graphics/SVG/1.1/DTD/svg11.dtd">
<svg version="1.1" id="Capa_1" xmlns="http://www.w3.org/2000/svg" xmlns:xlink="http://www.w3.org/1999/xlink" x="0px" y="0px"
	 width="141.732px" height="136.134px" viewBox="0 0 141.732 136.134" enable-background="new 0 0 141.732 136.134"
	 xml:space="preserve">
<g>
	<path d="M70.928,20.107c1.777-2.104,3.444-4.209,5.247-6.192C86.54,2.51,99.385-1.576,114.126,2.597
		c14.777,4.183,23.641,14.502,26.228,29.641c1.914,11.201-1.328,21.213-8.654,29.928c-20.047,23.848-40.059,47.726-60.087,71.59
		c-0.22,0.262-0.468,0.5-0.795,0.846c-2.865-3.405-5.664-6.724-8.455-10.05C48.85,108.443,35.34,92.332,21.828,76.223
		c-4.232-5.046-8.495-10.066-12.694-15.139C-8.437,39.856,3.413,6.84,30.52,1.842C45.068-0.84,57.141,3.857,66.636,15.189
		c1.302,1.553,2.599,3.11,3.902,4.662C70.599,19.922,70.7,19.96,70.928,20.107z"/>
</g>
</svg>
