<?xml version="1.0" encoding="utf-8"?>
<!-- Generator: Adobe Illustrator 17.0.0, SVG Export Plug-In . SVG Version: 6.00 Build 0)  -->
<!DOCTYPE svg PUBLIC "-//W3C//DTD SVG 1.1//EN" "http://www.w3.org/Graphics/SVG/1.1/DTD/svg11.dtd">
<svg version="1.1" xmlns="http://www.w3.org/2000/svg" xmlns:xlink="http://www.w3.org/1999/xlink" x="0px" y="0px"
	 width="141.732px" height="70.317px" viewBox="0 0 141.732 70.317" enable-background="new 0 0 141.732 70.317"
	 xml:space="preserve">
<g id="Capa_2">
</g>
<g id="Capa_1">
	<g>
		<path d="M58.443,15.781v46.205h-5.041v-4.411H14.828v4.551H9.928V15.781H58.443z M53.402,52.885V20.471H14.828v32.414H53.402z"/>
		<path d="M124.033,17.461v46.555h-5.11v-3.78H74.958v-4.761h43.965V22.152H75.727v-4.691H124.033z M116.682,4.09
			c3.29,2.66,7.07,7,9.171,10.081l-2.73,2.1c-2.03-3.22-5.74-7.421-8.891-10.011L116.682,4.09z M125.714,1.99
			c3.29,2.66,7.07,6.86,9.101,10.011l-2.66,2.1c-2.101-3.22-5.741-7.351-8.892-9.941L125.714,1.99z"/>
	</g>
</g>
</svg>
